 http://img27.imageshack.us/img27/9185/thespeedofthought2011.jpg

Country.......: USA
Genre.........: Thriller
Date release..: 2011 [World]
Director......: Evan Oppenheimer
Writers.......: Evan Oppenheimer
Duration......: 94 min.
More..........: http://www.imdb.com/title/tt0847825
Trailer.......: http://www.imdb.com/video/screenplay/vi1923390745
Trailer.......:

Pilot :
Joshua Lazarus (Nick Stahl) is a telepath who has been raised in a NSA foster home. Lazarus helps the government by using his abilities. He is told by the agency that the telepathy is a side effect of Widmann's Disease, and that he will become insane in time and eventually die from the illness. However, Lazarus meets a woman with similar powers (Taryn Manning) who does not have any sign of the disease, launching Lazarus to confront the lies he has been told.

Cats :
Nick Stahl 	... 	Joshua Lazarus
Mia Maestro 	... 	Anna Manheim
Taryn Manning 	... 	Kira
Wallace Shawn 	... 	Sandy
Blair Brown 	... 	Bridger
Erik Palladino 	... 	Butler
Alan Cox 	... 	Alexei
Marina Artigas 	... 	Slinky Woman
Carina Fossati 	... 	Chorist
Terrence Gray 	... 	NSA Agent #1

Data Technical :
!!! SAMPLE !!!
Audio.....: English
Subtitles.: None
Format                           : AVI
Format/Info                      : Audio Video Interleave
File size                        : 299 MiB
Duration                         : 1h 34mn
Overall bit rate                 : 444 Kbps
Writing application              : VirtualDubMod 1.5.10.2 (build 2542/release)
Writing library                  : VirtualDubMod build 2542/release
Video
ID                               : 0
Format                           : MPEG-4 Visual
Format profile                   : Advanced Simple@L5
Format settings, BVOP            : Yes
Format settings, QPel            : No
Format settings, GMC             : No warppoints
Format settings, Matrix          : Default (H.263)
Muxing mode                      : Packed bitstream
Codec ID                         : XVID
Codec ID/Hint                    : XviD
Duration                         : 1h 34mn
Bit rate                         : 307 Kbps
Width                            : 640 pixels
Height                           : 360 pixels
Display aspect ratio             : 16:9
Frame rate                       : 23.976 fps
Color space                      : YUV
Chroma subsampling               : 4:2:0
Bit depth                        : 8 bits
Scan type                        : Progressive
Bits/(Pixel*Frame)               : 0.056
Stream size                      : 207 MiB (69%)
Writing library                  : XviD 1.2.1
Audio
ID                               : 1
Format                           : MPEG Audio
Format version                   : Version 1
Format profile                   : Layer 3
Mode                             : Joint stereo
Mode extension                   : MS Stereo
Codec ID                         : 55
Codec ID/Hint                    : MP3
Duration                         : 1h 33mn
Bit rate mode                    : Constant
Bit rate                         : 128 Kbps
Channel(s)                       : 2 channels
Sampling rate                    : 48.0 KHz
Stream size                      : 85.8 MiB (29%)
Alignment                        : Aligned on interleaves
Interleave, duration             : 42 ms (1.00 video frame)
Interleave, preload duration     : 504 ms
Writing library                  : LAME3.97 
Encoding settings                : -m j -V 4 -q 2 -lowpass 17 -b 128

Screen : 
http://img706.imageshack.us/img706/9413/thespeedofthought2011s4.jpg 
http://img685.imageshack.us/img685/1383/thespeedofthought2011s1.jpg 
http://img7.imageshack.us/img7/4117/thespeedofthought2011s2.jpg 
http://img263.imageshack.us/img263/8138/thespeedofthought2011s3.jpg